<svg id="SvgjsSvg1006" width="288" height="288" xmlns="http://www.w3.org/2000/svg" version="1.1" xmlns:xlink="http://www.w3.org/1999/xlink" xmlns:svgjs="http://svgjs.com/svgjs"><defs id="SvgjsDefs1007"></defs><g id="SvgjsG1008" transform="matrix(1,0,0,1,0,0)"><svg xmlns="http://www.w3.org/2000/svg" width="288" height="288" version="1.0" viewBox="0 0 1529 122"><g transform="matrix(.1 0 0 -.1 0 122)" fill="#ffffff" class="color000 svgShape"><path d="M494 1183c-9-21-33-77-55-126-21-48-39-89-39-92 0-2-11-28-24-57-14-30-34-78-46-107-11-30-29-73-39-95-10-23-42-97-71-166-29-69-67-159-85-200-66-150-135-318-135-329 0-7 29-11 80-11 91 0 85-5 134 121 14 35 43 109 66 164 23 55 61 147 85 205 82 202 194 475 210 515l17 39 45-109c25-61 65-159 90-220 45-110 86-211 148-360 18-44 49-120 70-170 20-49 46-111 57-137l22-48 82 0c46 0 85 4 88 8 3 5-36 103-85 218-50 115-105 245-124 289-18 44-55 132-83 195-27 63-73 171-102 240-28 69-67 158-85 198l-34 72-86 0-86 0-15-37zM1355 1208c-3-7-4-281-3-608l3-595 80 0 80 0 3 539 2 538 193-4c211-5 239-11 292-67 26-28 30-40 33-106 5-92-8-130-60-183-52-53-122-87-217-107-40-8-77-17-81-20-5-3 0-33 9-68l18-62 44 2c24 0 88 15 142 33 217 69 327 201 327 390 0 176-84 279-257 315-92 20-601 21-608 3zM2750 1194c-102-30-159-62-220-124-62-61-93-117-126-225-24-80-27-106-27-235 0-129 3-155 27-235 33-108 64-164 126-225 62-63 118-94 224-124 76-22 108-26 227-26 213 0 341 42 445 147 65 65 104 135 131 233 25 93 25 368-1 460-54 194-171 310-368 361-114 29-325 26-438-7zm319-114c185-24 285-123 325-322 29-141 14-305-38-422-29-64-96-132-161-162-70-32-192-47-285-34-103 13-137 24-196 66-111 75-164 207-164 404 0 117 15 191 56 277 58 122 147 177 319 197 55 6 69 5 144-4zM4145 1194c-188-52-297-156-361-344-16-46-19-85-19-230 1-158 3-181 24-240 39-108 69-158 129-218 72-72 133-105 253-137 79-21 116-25 232-25 135 0 182 6 280 37l47 15 0 254 0 254-80 0-80 0 0-205c0-113-3-205-7-205-5 0-41-5-82-10-91-12-228 2-303 30-121 45-211 156-237 291-15 76-15 264 0 326 31 127 121 226 242 267 136 46 394 37 530-19 15-6 17 0 17 67l0 75-97 21c-144 32-362 30-488-4zM4985 1208c-3-7-4-281-3-608l3-595 400 0 400 0 3 68 3 67-321 0-320 0 0 205 0 205 298 2 297 3 0 65 0 65-297 3-298 2 0 195 0 195 313 2 312 3 0 65 0 65-393 3c-309 2-394 0-397-10zM6015 1208c-3-7-4-281-3-608l3-595 403-3 402-2 0 70 0 70-320 0-320 0 0 205 0 205 300 0 300 0 0 70 0 70-300 0-300 0 0 195 0 195 315 0 316 0-3 68-3 67-393 3c-309 2-394 0-397-10zM7857 1208c-11-28-109-255-121-283-8-16-37-86-66-155-71-170-287-677-305-718-9-18-13-38-10-43 9-14 151-11 162 4 6 6 61 136 122 287 119 291 164 401 211 515 16 39 43 105 61 148l32 79 19-44c11-24 37-86 58-138 21-52 93-228 160-390 68-162 136-329 152-370 16-41 34-80 40-87 12-15 178-18 178-4 0 9-174 423-239 571-16 36-66 153-111 260-105 249-150 352-163 368-6 8-38 12-92 12-57 0-84-4-88-12zM8487 1213c-4-3-7-35-7-70l0-63 190 0 190 0 0-540 0-541 83 3 82 3 3 538 2 537 185 0 185 0 0 70 0 70-453 0c-250 0-457-3-460-7zM9585 1208c-3-7-4-281-3-608l3-595 77-3 78-3 2 273 3 273 347 3 348 2 2-272 3-273 80 0 80 0 0 605 0 605-80 0-80 0-3-262-2-263-350 0-350 0 0 265 0 265-75 0c-51 0-77-4-80-12zM10885 1208c-3-7-4-281-3-608l3-595 395 0 395 0 3 68 3 67-315 0-316 0-2 538-3 537-78 3c-56 2-79-1-82-10zM11855 1208c-3-7-4-281-3-608l3-595 403-3 402-2 0 70 0 70-320 0-320 0 0 205 0 205 300 0 300 0 0 70 0 70-300 0-300 0 0 195 0 195 315 0 316 0-3 68-3 67-393 3c-309 2-394 0-397-10zM12797 1213c-4-3-7-35-7-70l0-63 185 0 185 0 2-537 3-538 83-3 82-3 0 541 0 540 190 0 191 0-3 68-3 67-451 3c-248 1-454-1-457-5zM13915 1208c-3-7-4-281-3-608l3-595 80 0 80 0 0 605 0 605-78 3c-56 2-79-1-82-10zM14715 1196c-119-32-173-62-246-136-51-52-73-83-98-143-42-101-51-156-51-301 0-210 47-345 159-457 76-76 130-106 253-138 112-30 332-30 464 1l94 21 0 72 0 72-66-18c-150-41-343-43-471-4-51 15-131 68-165 109-32 39-76 131-87 184-17 81-14 278 5 343 27 91 73 156 149 209 117 81 362 98 569 41l66-18 0 72 0 72-97 21c-138 31-363 30-478-2z" fill="#ffffff" class="color000 svgShape"></path></g></svg></g></svg>