<svg version="1.2" baseProfile="tiny-ps" xmlns="http://www.w3.org/2000/svg" viewBox="0 0 1529 122" width="1529" height="122">
	<title>apogee-athletic-words-svg</title>
	<style>
		tspan { white-space:pre }
		.shp0 { fill: #ffffff } 
	</style>
	<g id="Layer">
		<path id="Layer" class="shp0" d="M50.9 0L59.5 0L68.1 0L71.5 7.2C73.3 11.2 77.2 20.1 80 27C82.9 33.9 87.5 44.7 90.2 51C93 57.3 96.7 66.1 98.5 70.5C100.4 74.9 105.9 87.9 110.9 99.4C115.8 110.9 119.7 120.7 119.4 121.2C119.1 121.6 115.2 122 110.6 122L102.4 122L100.2 117.2C99.1 114.6 96.5 108.4 94.5 103.5C92.4 98.5 89.3 90.9 87.5 86.5C81.3 71.6 77.2 61.5 72.7 50.5C70.2 44.4 66.2 34.6 63.7 28.5L59.2 17.6L57.5 21.5C55.9 25.5 44.7 52.8 36.5 73C34.1 78.8 30.3 88 28 93.5C25.7 99 22.8 106.4 21.4 109.9C16.5 122.5 17.1 122 8 122C2.9 122 0 121.6 0 120.9C0 119.8 6.9 103 13.5 88C15.3 83.9 19.1 74.9 22 68C24.9 61.1 28.1 53.7 29.1 51.4C30.1 49.2 31.9 44.9 33 41.9C34.2 39 36.2 34.2 37.6 31.2C38.9 28.3 40 25.7 40 25.5C40 25.2 41.8 21.1 43.9 16.3C46.1 11.4 48.5 5.8 49.4 3.7L50.9 0Z" />
		<path id="Layer" class="shp0" d="M196.3 1.5C213.6 5.1 222 15.4 222 33C222 51.9 211 65.1 189.3 72C183.9 73.8 177.5 75.3 175.1 75.3L170.7 75.5L168.9 69.3C168 65.8 167.5 62.8 168 62.5C168.4 62.2 172.1 61.3 176.1 60.5C185.6 58.5 192.6 55.1 197.8 49.8C203 44.5 204.3 40.7 203.8 31.5C203.5 24.9 203.1 23.7 200.5 20.9C195.2 15.3 192.4 14.7 171.3 14.2L152 13.8L151.8 67.6L151.5 121.5L143.5 121.5L135.5 121.5L135.2 62C135.1 29.3 135.2 1.9 135.5 1.2C136.2 -0.6 187.1 -0.5 196.3 1.5Z" />
		<path id="Layer" fill-rule="evenodd" class="shp0" d="M318.8 1.9C338.5 7 350.2 18.6 355.6 38C358.2 47.2 358.2 74.7 355.7 84C353 93.8 349.1 100.8 342.6 107.3C332.2 117.8 319.4 122 298.1 122C286.2 122 283 121.6 275.4 119.4C264.8 116.4 259.2 113.3 253 107C246.8 100.9 243.7 95.3 240.4 84.5C238 76.5 237.7 73.9 237.7 61C237.7 48.1 238 45.5 240.4 37.5C243.7 26.7 246.8 21.1 253 15C259.1 8.8 264.8 5.6 275 2.6C286.3 -0.7 307.4 -1 318.8 1.9ZM292.5 13.6C275.3 15.6 266.4 21.1 260.6 33.3C256.5 41.9 255 49.3 255 61C255 80.7 260.3 93.9 271.4 101.4C277.3 105.6 280.7 106.7 291 108C300.3 109.3 312.5 107.8 319.5 104.6C326 101.6 332.7 94.8 335.6 88.4C340.8 76.7 342.3 60.3 339.4 46.2C335.4 26.3 325.4 16.4 306.9 14C299.4 13.1 298 13 292.5 13.6Z" />
		<path id="Layer" class="shp0" d="M463.3 2.2L473 4.3L473 11.8C473 18.5 472.8 19.1 471.3 18.5C457.7 12.9 431.9 12 418.3 16.6C406.2 20.7 397.2 30.6 394.1 43.3C392.6 49.5 392.6 68.3 394.1 75.9C396.7 89.4 405.7 100.5 417.8 105C425.3 107.8 439 109.2 448.1 108C452.2 107.5 455.8 107 456.3 107C456.7 107 457 97.8 457 86.5L457 66L465 66L473 66L473 91.4L473 116.8L468.3 118.3C458.5 121.4 453.8 122 440.3 122C428.7 122 425 121.6 417.1 119.5C405.1 116.3 399 113 391.8 105.8C385.8 99.8 382.8 94.8 378.9 84C376.8 78.1 376.6 75.8 376.5 60C376.5 45.5 376.8 41.6 378.4 37C384.8 18.2 395.7 7.8 414.5 2.6C427.1 -0.8 448.9 -1 463.3 2.2Z" />
		<path id="Layer" class="shp0" d="M538.2 0.2L577.5 0.5L577.5 7L577.5 13.5L546.3 13.8L515 14L515 33.5L515 53L544.8 53.2L574.5 53.5L574.5 60L574.5 66.5L544.8 66.8L515 67L515 87.5L515 108L547 108L579.1 108L578.8 114.7L578.5 121.5L538.5 121.5L498.5 121.5L498.2 62C498.1 29.3 498.2 1.9 498.5 1.2C498.8 0.2 507.3 0 538.2 0.2Z" />
		<path id="Layer" class="shp0" d="M641.2 0.2L680.5 0.5L680.8 7.2L681.1 14L649.5 14L618 14L618 33.5L618 53L648 53L678 53L678 60L678 67L648 67L618 67L618 87.5L618 108L650 108L682 108L682 115L682 122L641.8 121.8L601.5 121.5L601.2 62C601.1 29.3 601.2 1.9 601.5 1.2C601.8 0.2 610.3 0 641.2 0.2Z" />
		<path id="Layer" class="shp0" d="M794.5 0C799.9 0 803.1 0.4 803.7 1.2C805 2.8 809.5 13.1 820 38C824.5 48.7 829.5 60.4 831.1 64C837.6 78.8 855 120.2 855 121.1C855 122.5 838.4 122.2 837.2 120.7C836.6 120 834.8 116.1 833.2 112C831.6 107.9 824.8 91.2 818 75C811.3 58.8 804.1 41.2 802 36C799.9 30.8 797.3 24.6 796.2 22.2L794.3 17.8L791.1 25.7C789.3 30 786.6 36.6 785 40.5C780.3 51.9 775.8 62.9 763.9 92C757.8 107.1 752.3 120.1 751.7 120.7C750.6 122.2 736.4 122.5 735.5 121.1C735.2 120.6 735.6 118.6 736.5 116.8C738.3 112.7 759.9 62 767 45C769.9 38.1 772.8 31.1 773.6 29.5C774.8 26.7 784.6 4 785.7 1.2C786.1 0.4 788.8 0 794.5 0Z" />
		<path id="Layer" class="shp0" d="M894.7 0L940 0L940 7L940 14L921.5 14L903 14L902.8 67.7L902.5 121.5L894.3 121.8L886 122.1L886 68L886 14L867 14L848 14L848 7.7C848 4.2 848.3 1 848.7 0.7C849 0.3 869.7 0 894.7 0Z" />
		<path id="Layer" class="shp0" d="M966.5 0L974 0L974 26.5L974 53L1009 53L1044 53L1044.2 26.7L1044.5 0.5L1052.5 0.5L1060.5 0.5L1060.5 61L1060.5 121.5L1052.5 121.5L1044.5 121.5L1044.2 94.2L1044 67L1009.2 67.2L974.5 67.5L974.2 94.8L974 122.1L966.2 121.8L958.5 121.5L958.2 62C958.1 29.3 958.2 1.9 958.5 1.2C958.8 0.4 961.4 0 966.5 0Z" />
		<path id="Layer" class="shp0" d="M1096.7 0.2L1104.5 0.5L1104.8 54.2L1105 108L1136.6 108L1168.1 108L1167.8 114.7L1167.5 121.5L1128 121.5L1088.5 121.5L1088.2 62C1088.1 29.3 1088.2 1.9 1088.5 1.2C1088.8 0.3 1091.1 0 1096.7 0.2Z" />
		<path id="Layer" class="shp0" d="M1225.2 0.2L1264.5 0.5L1264.8 7.2L1265.1 14L1233.5 14L1202 14L1202 33.5L1202 53L1232 53L1262 53L1262 60L1262 67L1232 67L1202 67L1202 87.5L1202 108L1234 108L1266 108L1266 115L1266 122L1225.8 121.8L1185.5 121.5L1185.2 62C1185.1 29.3 1185.2 1.9 1185.5 1.2C1185.8 0.2 1194.3 0 1225.2 0.2Z" />
		<path id="Layer" class="shp0" d="M1325.4 0.2L1370.5 0.5L1370.8 7.2L1371.1 14L1352 14L1333 14L1333 68L1333 122.1L1324.8 121.8L1316.5 121.5L1316.2 67.7L1316 14L1297.5 14L1279 14L1279 7.7C1279 4.2 1279.3 1 1279.7 0.7C1280 0.3 1300.6 0.1 1325.4 0.2Z" />
		<path id="Layer" class="shp0" d="M1399.7 0.2L1407.5 0.5L1407.5 61L1407.5 121.5L1399.5 121.5L1391.5 121.5L1391.2 62C1391.1 29.3 1391.2 1.9 1391.5 1.2C1391.8 0.3 1394.1 0 1399.7 0.2Z" />
		<path id="Layer" class="shp0" d="M1519.3 2.2L1529 4.3L1529 11.5L1529 18.7L1522.4 16.9C1501.7 11.2 1477.2 12.9 1465.5 21C1457.9 26.3 1453.3 32.8 1450.6 41.9C1448.7 48.4 1448.4 68.1 1450.1 76.2C1451.2 81.5 1455.6 90.7 1458.8 94.6C1462.2 98.7 1470.2 104 1475.3 105.5C1488.1 109.4 1507.4 109.2 1522.4 105.1L1529 103.3L1529 110.5L1529 117.7L1519.6 119.8C1506.4 122.9 1484.4 122.9 1473.2 119.9C1460.9 116.7 1455.5 113.7 1447.9 106.1C1436.7 94.9 1432 81.4 1432 60.4C1432 45.9 1432.9 40.4 1437.1 30.3C1439.6 24.3 1441.8 21.2 1446.9 16C1454.2 8.6 1459.6 5.6 1471.5 2.4C1483 -0.8 1505.5 -0.9 1519.3 2.2Z" />
	</g>
</svg>