<svg version="1.2" baseProfile="tiny-ps" xmlns="http://www.w3.org/2000/svg" viewBox="0 0 24 24" width="24" height="24">
	<title>podcastaddict-svg</title>
	<style>
		tspan { white-space:pre }
		.shp0 { fill: #f4842d } 
	</style>
	<path id="Layer" fill-rule="evenodd" class="shp0" d="M18.64 0.04C21.59 0.04 24 2.45 24 5.4L24 18.6C24 21.55 21.59 23.96 18.64 23.96L5.36 23.96C2.41 23.96 0 21.55 0 18.6L0 5.4C0 2.45 2.41 0.04 5.36 0.04L18.64 0.04ZM11.95 4.32C10.22 4.32 8.55 4.9 7.2 5.96C5.84 7.02 4.88 8.5 4.46 10.17C4.04 11.84 4.2 13.61 4.9 15.18C5.6 16.75 6.8 18.05 8.32 18.86L8.32 12C8.32 11.58 8.39 11.16 8.54 10.76C8.68 10.36 8.89 9.99 9.16 9.67C9.43 9.34 9.75 9.07 10.12 8.85C10.48 8.63 10.88 8.48 11.29 8.4L11.29 9.69C10.29 9.98 9.57 10.91 9.57 12L9.57 12.03C9.58 12.61 9.79 13.17 10.17 13.6C10.55 14.03 11.08 14.31 11.65 14.39C12.22 14.47 12.8 14.35 13.29 14.03C13.77 13.72 14.13 13.25 14.3 12.69L15.58 12.69C15.5 13.11 15.35 13.51 15.13 13.87C14.92 14.23 14.64 14.56 14.32 14.83C13.99 15.09 13.62 15.31 13.22 15.45C12.82 15.59 12.4 15.66 11.98 15.66C11.76 15.66 11.54 15.64 11.33 15.61C11.11 15.57 10.9 15.51 10.69 15.43C10.48 15.35 10.29 15.26 10.1 15.14C9.91 15.03 9.73 14.9 9.57 14.75L9.57 19.38C9.76 19.45 9.95 19.5 10.15 19.55C10.35 19.6 10.54 19.63 10.74 19.67C10.94 19.7 11.14 19.72 11.34 19.74C11.55 19.75 11.75 19.76 11.95 19.76C12.33 19.76 12.72 19.73 13.09 19.68C13.47 19.62 13.85 19.54 14.21 19.42C14.58 19.31 14.94 19.17 15.28 19.01C15.63 18.84 15.96 18.65 16.28 18.44L16.28 19.76L19.67 19.76L19.66 11.87C19.64 10.87 19.42 9.88 19.02 8.97C18.63 8.05 18.05 7.22 17.34 6.52C16.63 5.82 15.78 5.27 14.86 4.89C13.93 4.52 12.94 4.32 11.95 4.32ZM11.98 6.19C12.74 6.19 13.5 6.34 14.21 6.64C14.91 6.93 15.55 7.36 16.09 7.9C16.63 8.44 17.06 9.08 17.35 9.78C17.64 10.49 17.79 11.24 17.79 12L17.79 12.01L16.55 12.01L16.55 12C16.55 11.4 16.44 10.81 16.21 10.25C15.98 9.7 15.64 9.2 15.22 8.77C14.79 8.35 14.29 8.01 13.73 7.78C13.18 7.55 12.58 7.43 11.98 7.43L11.98 7.43L11.98 6.19L11.98 6.19ZM11.98 8.34C12.46 8.34 12.94 8.44 13.38 8.62C13.83 8.8 14.23 9.07 14.57 9.41C14.91 9.75 15.18 10.16 15.37 10.6C15.55 11.05 15.64 11.52 15.64 12L15.64 12.01L14.4 12.01L14.4 12C14.4 11.69 14.34 11.37 14.21 11.08C14.09 10.78 13.91 10.52 13.69 10.29C13.47 10.07 13.2 9.89 12.91 9.77C12.61 9.65 12.3 9.59 11.98 9.59L11.98 9.59L11.98 8.34L11.98 8.34ZM13.39 12C13.39 12.78 12.76 13.41 11.98 13.41C11.2 13.41 10.57 12.78 10.57 12C10.57 11.22 11.2 10.59 11.98 10.59C12.76 10.59 13.39 11.22 13.39 12Z" />
</svg>